<svg xmlns="http://www.w3.org/2000/svg" viewBox="0 0 100 125"><path d="M40 91.476V95h20v-3.524C77.252 87.868 90 75.144 90 60H10c0 15.144 12.748 27.868 30 31.476zm11.419-66.762c1.338 2.519 2.027 5.22 2.027 7.949v7.631l2.027-3.816c2.703-5.087 2.703-10.811 0-15.898-1.338-2.519-2.027-5.22-2.027-7.949V5l-2.027 3.816c-2.703 5.087-2.703 10.81 0 15.898zm-4.865 22.655V55l2.027-3.816c2.703-5.087 2.703-10.811 0-15.898-1.338-2.519-2.027-5.22-2.027-7.949v-7.631l-2.027 3.816c-2.703 5.087-2.703 10.811 0 15.898 1.338 2.518 2.027 5.22 2.027 7.949z" fill="#492411"/></svg>