<svg xmlns="http://www.w3.org/2000/svg" xmlns:xlink="http://www.w3.org/1999/xlink" version="1.1" x="0px" y="0px" viewBox="0 0 100 125" enable-background="new 0 0 100 100" xml:space="preserve">
  <path d="M40,91.476V95h20v-3.524C77.252,87.868,90,75.144,90,60H10C10,75.144,22.748,87.868,40,91.476z" fill="#492411"/>
  <path d="M51.419,24.714c1.338,2.519,2.027,5.22,2.027,7.949v7.631l2.027-3.816c2.703-5.087,2.703-10.811,0-15.898  c-1.338-2.519-2.027-5.22-2.027-7.949V5l-2.027,3.816C48.716,13.903,48.716,19.626,51.419,24.714L51.419,24.714z" fill="#492411"/>
  <path d="M46.554,47.369V55l2.027-3.816c2.703-5.087,2.703-10.811,0-15.898h0c-1.338-2.519-2.027-5.22-2.027-7.949v-7.631  l-2.027,3.816c-2.703,5.087-2.703,10.811,0,15.898C45.865,41.938,46.554,44.64,46.554,47.369z" fill="#492411"/>
</svg>
