<?xml version="1.0" encoding="utf-8"?>
<!-- Generator: Adobe Illustrator 16.0.0, SVG Export Plug-In . SVG Version: 6.00 Build 0)  -->
<!DOCTYPE svg PUBLIC "-//W3C//DTD SVG 1.1//EN" "http://www.w3.org/Graphics/SVG/1.1/DTD/svg11.dtd">
<svg version="1.1" id="Layer_1" xmlns="http://www.w3.org/2000/svg" xmlns:xlink="http://www.w3.org/1999/xlink" x="0px" y="0px"
	 width="215px" height="215px" viewBox="0 0 215 215" enable-background="new 0 0 215 215" xml:space="preserve">
<g>
	<path fill="#fff" d="M110.098,166.09c-54.577,0-81.689,14.42-96.419,21.301c0,0,36.385-15.388,96.419-15.388
		c59.276,0,95.282,15.388,95.282,15.388S169.071,166.09,110.098,166.09z"/>
	<path fill="#fff" d="M212.797,107.732c0-58.047-47.057-105.105-105.104-105.105S2.587,49.685,2.587,107.732
		c0,24.325,8.268,46.719,22.141,64.53c6.042-1.842,12.054-3.469,18.083-4.904l-0.226,0.042c0,0,50.076-80.462,57.823-127.277
		c0,0,0,0,1.474,0c-4.133,29.355-13.162,99.697-30.964,122.05l-0.003,0.001c6.884-0.897,13.889-1.54,21.08-1.933h-0.042
		c0,0,13.136-72.379,15.37-120.119c0,0,0,0,1.995,0c-0.239,29.008,10.688,102.374,15.731,120.088h-0.176
		c6.854,0.363,13.508,0.949,19.945,1.72c-17.677-22.367-26.659-92.557-30.778-121.808c1.475,0,1.475,0,1.475,0
		c7.114,42.995,49.928,119.794,56.868,126.381c6.703,1.428,13.083,3.011,19.089,4.692
		C204.853,153.561,212.797,131.576,212.797,107.732z"/>
</g>
<g>
	<path fill="#fff" d="M44.461,187.36c0.151,0.079,0.324,0.239,0.518,0.481l15.075,19.615c-0.036-0.314-0.061-0.619-0.072-0.917
		c-0.013-0.297-0.019-0.584-0.019-0.862v-18.436h3.088v26.027h-1.78c-0.279,0-0.512-0.049-0.7-0.146
		c-0.188-0.096-0.372-0.261-0.554-0.49l-15.057-19.598c0.024,0.303,0.042,0.599,0.055,0.891c0.012,0.29,0.018,0.557,0.018,0.799
		v18.544h-3.087v-26.027h1.816C44.077,187.242,44.31,187.282,44.461,187.36z"/>
	<path fill="#fff" d="M93.583,200.264c0,1.949-0.309,3.738-0.926,5.367s-1.489,3.03-2.615,4.205c-1.126,1.174-2.479,2.086-4.06,2.733
		c-1.58,0.648-3.327,0.972-5.24,0.972s-3.657-0.323-5.231-0.972c-1.574-0.647-2.924-1.56-4.05-2.733
		c-1.126-1.175-1.998-2.576-2.615-4.205s-0.926-3.418-0.926-5.367c0-1.948,0.309-3.738,0.926-5.367
		c0.618-1.628,1.489-3.033,2.615-4.214c1.126-1.181,2.477-2.098,4.05-2.751c1.574-0.654,3.318-0.98,5.231-0.98s3.66,0.326,5.24,0.98
		c1.58,0.653,2.933,1.57,4.06,2.751c1.126,1.181,1.998,2.586,2.615,4.214C93.274,196.526,93.583,198.316,93.583,200.264z
		 M89.969,200.264c0-1.598-0.218-3.033-0.654-4.304c-0.436-1.272-1.054-2.347-1.853-3.225c-0.799-0.878-1.768-1.553-2.906-2.024
		c-1.139-0.474-2.41-0.709-3.814-0.709c-1.392,0-2.658,0.235-3.796,0.709c-1.139,0.472-2.11,1.146-2.915,2.024
		c-0.806,0.878-1.426,1.952-1.861,3.225c-0.436,1.271-0.654,2.706-0.654,4.304c0,1.599,0.218,3.031,0.654,4.296
		c0.435,1.266,1.056,2.337,1.861,3.215c0.805,0.878,1.776,1.55,2.915,2.016c1.138,0.466,2.404,0.7,3.796,0.7
		c1.404,0,2.676-0.234,3.814-0.7c1.138-0.466,2.107-1.138,2.906-2.016c0.799-0.878,1.417-1.949,1.853-3.215
		C89.75,203.295,89.969,201.863,89.969,200.264z"/>
	<path fill="#fff" d="M111.646,204.778c0.128,0.321,0.253,0.646,0.373,0.973c0.12-0.339,0.247-0.664,0.381-0.973
		c0.135-0.309,0.285-0.62,0.454-0.936l8.81-16.001c0.157-0.279,0.321-0.448,0.49-0.509c0.168-0.061,0.411-0.091,0.726-0.091h2.598
		v26.027h-3.088v-19.126c0-0.254,0.007-0.525,0.019-0.817c0.012-0.29,0.03-0.586,0.056-0.89l-8.918,16.274
		c-0.304,0.545-0.727,0.816-1.272,0.816h-0.509c-0.543,0-0.969-0.271-1.271-0.816l-9.118-16.328
		c0.037,0.314,0.065,0.623,0.081,0.926c0.019,0.304,0.028,0.581,0.028,0.835v19.126h-3.087v-26.027h2.597
		c0.314,0,0.557,0.03,0.726,0.091c0.171,0.061,0.333,0.229,0.49,0.509l8.993,16.02C111.371,204.151,111.519,204.458,111.646,204.778
		z"/>
	<path fill="#fff" d="M153.23,213.269h-2.725c-0.317,0-0.571-0.079-0.764-0.236c-0.194-0.157-0.34-0.356-0.437-0.599l-2.434-6.285h-11.68
		l-2.433,6.285c-0.086,0.218-0.229,0.412-0.436,0.58c-0.205,0.171-0.46,0.255-0.763,0.255h-2.725l10.407-26.027h3.578
		L153.23,213.269z M136.173,203.606h9.719l-4.087-10.589c-0.266-0.653-0.527-1.471-0.781-2.452
		c-0.132,0.498-0.264,0.954-0.392,1.372c-0.127,0.417-0.249,0.784-0.372,1.099L136.173,203.606z"/>
	<path fill="#fff" d="M179.075,200.264c0,1.949-0.31,3.724-0.927,5.322c-0.618,1.598-1.489,2.967-2.616,4.104
		c-1.124,1.138-2.475,2.02-4.05,2.643c-1.572,0.624-3.316,0.936-5.231,0.936h-9.734v-26.027h9.734c1.915,0,3.659,0.313,5.231,0.936
		c1.575,0.623,2.926,1.507,4.05,2.651c1.127,1.145,1.998,2.516,2.616,4.114C178.766,196.541,179.075,198.316,179.075,200.264z
		 M175.461,200.264c0-1.598-0.218-3.026-0.654-4.285c-0.436-1.26-1.053-2.326-1.853-3.198c-0.799-0.872-1.768-1.536-2.905-1.997
		c-1.138-0.46-2.405-0.69-3.798-0.69h-6.191v20.324h6.191c1.393,0,2.66-0.23,3.798-0.69s2.106-1.123,2.905-1.989
		c0.8-0.865,1.417-1.928,1.853-3.187C175.243,203.292,175.461,201.863,175.461,200.264z"/>
</g>
</svg>
