<?xml version="1.0" encoding="utf-8"?>
<!-- Generator: Adobe Illustrator 16.0.0, SVG Export Plug-In . SVG Version: 6.00 Build 0)  -->
<!DOCTYPE svg PUBLIC "-//W3C//DTD SVG 1.1//EN" "http://www.w3.org/Graphics/SVG/1.1/DTD/svg11.dtd">
<svg version="1.1" id="Layer_1" xmlns="http://www.w3.org/2000/svg" xmlns:xlink="http://www.w3.org/1999/xlink" x="0px" y="0px"
	 width="591.457px" height="191.666px" viewBox="0 0 591.457 191.666" enable-background="new 0 0 591.457 191.666"
	 xml:space="preserve">
<g>
	<path fill="#070909" d="M110.098,168.297c-54.577,0-81.689,14.42-96.419,21.301c0,0,36.385-15.387,96.419-15.387
		c59.276,0,95.282,15.387,95.282,15.387S169.071,168.297,110.098,168.297z"/>
	<path fill="#070909" d="M212.797,109.94c0-58.048-47.057-105.106-105.104-105.106S2.587,51.892,2.587,109.94
		c0,24.324,8.268,46.719,22.141,64.529c6.042-1.842,12.054-3.469,18.083-4.904l-0.226,0.043c0,0,50.076-80.463,57.823-127.278
		c0,0,0,0,1.474,0c-4.133,29.355-13.162,99.698-30.964,122.051h-0.003c6.884-0.896,13.889-1.539,21.08-1.932h-0.042
		c0,0,13.136-72.38,15.37-120.12c0,0,0,0,1.995,0c-0.239,29.008,10.688,102.374,15.731,120.088h-0.176
		c6.854,0.363,13.508,0.949,19.945,1.721c-17.677-22.367-26.659-92.558-30.778-121.809c1.475,0,1.475,0,1.475,0
		c7.114,42.995,49.928,119.795,56.868,126.381c6.703,1.428,13.083,3.012,19.089,4.693
		C204.853,155.768,212.797,133.784,212.797,109.94z"/>
</g>
<g>
	<g>
		<path d="M232.594,84.328c0.15,0.079,0.323,0.239,0.518,0.481l15.074,19.615c-0.035-0.314-0.061-0.619-0.072-0.916
			c-0.012-0.297-0.018-0.584-0.018-0.863V84.21h3.088v26.029h-1.78c-0.278,0-0.512-0.049-0.7-0.145
			c-0.188-0.096-0.371-0.262-0.553-0.49l-15.058-19.599c0.024,0.303,0.042,0.598,0.055,0.891c0.012,0.289,0.019,0.557,0.019,0.799
			v18.544h-3.088V84.21h1.816C232.209,84.21,232.441,84.25,232.594,84.328z"/>
		<path d="M281.715,97.233c0,1.949-0.309,3.738-0.926,5.367c-0.618,1.628-1.49,3.031-2.615,4.207
			c-1.127,1.174-2.48,2.086-4.061,2.732c-1.58,0.648-3.326,0.973-5.24,0.973c-1.912,0-3.656-0.324-5.23-0.973
			c-1.574-0.646-2.924-1.559-4.051-2.732c-1.125-1.176-1.997-2.578-2.615-4.207c-0.617-1.629-0.926-3.418-0.926-5.367
			s0.309-3.738,0.926-5.367c0.618-1.629,1.49-3.033,2.615-4.215c1.127-1.18,2.477-2.098,4.051-2.75
			c1.574-0.655,3.318-0.981,5.23-0.981c1.914,0,3.66,0.326,5.24,0.981c1.58,0.652,2.934,1.57,4.061,2.75
			c1.125,1.182,1.997,2.586,2.615,4.215C281.406,93.495,281.715,95.284,281.715,97.233z M278.101,97.233
			c0-1.598-0.218-3.033-0.653-4.305c-0.437-1.271-1.055-2.346-1.854-3.225c-0.799-0.877-1.768-1.553-2.906-2.023
			c-1.139-0.475-2.41-0.709-3.814-0.709c-1.392,0-2.658,0.234-3.795,0.709c-1.139,0.471-2.11,1.146-2.916,2.023
			c-0.805,0.879-1.426,1.953-1.861,3.225s-0.654,2.707-0.654,4.305s0.219,3.031,0.654,4.295c0.436,1.266,1.057,2.337,1.861,3.216
			c0.806,0.879,1.777,1.551,2.916,2.016c1.137,0.467,2.403,0.701,3.795,0.701c1.404,0,2.676-0.234,3.814-0.701
			c1.139-0.465,2.107-1.137,2.906-2.016s1.417-1.951,1.854-3.216C277.883,100.265,278.101,98.831,278.101,97.233z"/>
		<path d="M299.777,101.747c0.128,0.32,0.253,0.645,0.373,0.973c0.12-0.34,0.247-0.664,0.381-0.973
			c0.135-0.309,0.285-0.621,0.454-0.936l8.81-16.002c0.157-0.279,0.321-0.448,0.49-0.509c0.168-0.061,0.411-0.091,0.726-0.091h2.598
			v26.029h-3.088V91.112c0-0.254,0.007-0.525,0.019-0.818c0.012-0.289,0.03-0.586,0.056-0.889l-8.918,16.275
			c-0.304,0.545-0.727,0.816-1.272,0.816h-0.509c-0.543,0-0.969-0.271-1.271-0.816l-9.118-16.33
			c0.037,0.314,0.064,0.623,0.081,0.926c0.019,0.305,0.028,0.582,0.028,0.836v19.126h-3.088V84.21h2.598
			c0.314,0,0.557,0.03,0.726,0.091c0.171,0.061,0.333,0.229,0.49,0.509l8.993,16.02C299.503,101.12,299.65,101.427,299.777,101.747z
			"/>
		<path d="M341.362,110.239h-2.725c-0.317,0-0.571-0.078-0.764-0.236c-0.194-0.156-0.34-0.355-0.437-0.598l-2.434-6.287h-11.68
			l-2.433,6.287c-0.086,0.217-0.229,0.412-0.436,0.58c-0.205,0.17-0.46,0.254-0.763,0.254h-2.725l10.407-26.029h3.578
			L341.362,110.239z M324.305,100.575h9.719l-4.087-10.59c-0.266-0.652-0.527-1.471-0.781-2.451
			c-0.132,0.498-0.264,0.953-0.392,1.371c-0.127,0.418-0.249,0.785-0.372,1.1L324.305,100.575z"/>
		<path d="M367.207,97.233c0,1.949-0.31,3.723-0.927,5.322c-0.618,1.597-1.489,2.968-2.616,4.105
			c-1.124,1.139-2.475,2.02-4.05,2.643c-1.572,0.625-3.316,0.936-5.231,0.936h-9.734V84.21h9.734c1.915,0,3.659,0.313,5.231,0.936
			c1.575,0.623,2.926,1.508,4.05,2.652c1.127,1.145,1.998,2.516,2.616,4.113C366.897,93.509,367.207,95.284,367.207,97.233z
			 M363.593,97.233c0-1.598-0.218-3.027-0.654-4.285c-0.436-1.26-1.053-2.326-1.853-3.199c-0.799-0.871-1.768-1.535-2.905-1.996
			s-2.405-0.691-3.798-0.691h-6.191v20.326h6.191c1.393,0,2.66-0.23,3.798-0.689c1.138-0.461,2.106-1.123,2.905-1.99
			c0.8-0.867,1.417-1.929,1.853-3.187C363.375,100.261,363.593,98.831,363.593,97.233z"/>
	</g>
</g>
</svg>
